<svg xmlns="http://www.w3.org/2000/svg" xmlns:xlink="http://www.w3.org/1999/xlink" width="700" zoomAndPan="magnify" viewBox="0 0 525 112.499997" height="150" preserveAspectRatio="xMidYMid meet" version="1.0"><defs><g/><clipPath id="8f45049ccd"><rect x="0" width="327" y="0" height="59"/></clipPath></defs><g transform="matrix(1, 0, 0, 1, 89, 27)"><g clip-path="url(#8f45049ccd)"><g fill="#a6a6a6" fill-opacity="1"><g transform="translate(0.311228, 44.761457)"><g><path d="M 9.640625 0 L 3.90625 0 L 3.90625 -30 L 10.6875 -30 L 22.734375 -10.671875 L 23.265625 -10.75 L 23.265625 -30 L 28.984375 -30 L 28.984375 0 L 22.90625 0 L 10.15625 -20.640625 L 9.640625 -20.5625 Z M 9.640625 0 "/></g></g><g transform="translate(33.206868, 44.761457)"><g><path d="M 13.15625 0.4375 C 10.9375 0.4375 8.988281 -0.015625 7.3125 -0.921875 C 5.632812 -1.835938 4.332031 -3.175781 3.40625 -4.9375 C 2.488281 -6.695312 2.03125 -8.820312 2.03125 -11.3125 C 2.03125 -13.800781 2.488281 -15.925781 3.40625 -17.6875 C 4.332031 -19.457031 5.632812 -20.796875 7.3125 -21.703125 C 8.988281 -22.609375 10.9375 -23.0625 13.15625 -23.0625 C 15.375 -23.0625 17.320312 -22.609375 19 -21.703125 C 20.675781 -20.796875 21.976562 -19.457031 22.90625 -17.6875 C 23.832031 -15.925781 24.296875 -13.800781 24.296875 -11.3125 C 24.296875 -8.820312 23.832031 -6.695312 22.90625 -4.9375 C 21.976562 -3.175781 20.675781 -1.835938 19 -0.921875 C 17.320312 -0.015625 15.375 0.4375 13.15625 0.4375 Z M 13.15625 -4.390625 C 16.675781 -4.390625 18.4375 -6.695312 18.4375 -11.3125 C 18.4375 -13.707031 17.984375 -15.460938 17.078125 -16.578125 C 16.171875 -17.691406 14.863281 -18.25 13.15625 -18.25 C 9.632812 -18.25 7.875 -15.9375 7.875 -11.3125 C 7.875 -6.695312 9.632812 -4.390625 13.15625 -4.390625 Z M 13.15625 -4.390625 "/></g></g><g transform="translate(59.51517, 44.761457)"><g/></g><g transform="translate(69.426957, 44.761457)"><g><path d="M 16.390625 0.4375 C 13.628906 0.4375 11.195312 -0.132812 9.09375 -1.28125 C 6.988281 -2.4375 5.335938 -4.164062 4.140625 -6.46875 C 2.953125 -8.78125 2.359375 -11.625 2.359375 -15 C 2.359375 -18.382812 2.953125 -21.226562 4.140625 -23.53125 C 5.335938 -25.832031 6.988281 -27.554688 9.09375 -28.703125 C 11.195312 -29.859375 13.628906 -30.4375 16.390625 -30.4375 C 19.285156 -30.4375 21.738281 -29.867188 23.75 -28.734375 C 25.769531 -27.609375 27.210938 -25.890625 28.078125 -23.578125 L 23.75 -20.9375 L 23.234375 -20.953125 C 22.585938 -22.515625 21.710938 -23.632812 20.609375 -24.3125 C 19.515625 -24.988281 18.109375 -25.328125 16.390625 -25.328125 C 13.898438 -25.328125 11.957031 -24.5 10.5625 -22.84375 C 9.164062 -21.195312 8.46875 -18.582031 8.46875 -15 C 8.46875 -11.425781 9.164062 -8.816406 10.5625 -7.171875 C 11.957031 -5.523438 13.898438 -4.703125 16.390625 -4.703125 C 20.296875 -4.703125 22.6875 -6.597656 23.5625 -10.390625 L 24.078125 -10.390625 L 28.4375 -8.109375 C 27.625 -5.265625 26.222656 -3.128906 24.234375 -1.703125 C 22.253906 -0.273438 19.640625 0.4375 16.390625 0.4375 Z M 16.390625 0.4375 "/></g></g><g transform="translate(98.854497, 44.761457)"><g><path d="M 13.15625 0.4375 C 10.9375 0.4375 8.988281 -0.015625 7.3125 -0.921875 C 5.632812 -1.835938 4.332031 -3.175781 3.40625 -4.9375 C 2.488281 -6.695312 2.03125 -8.820312 2.03125 -11.3125 C 2.03125 -13.800781 2.488281 -15.925781 3.40625 -17.6875 C 4.332031 -19.457031 5.632812 -20.796875 7.3125 -21.703125 C 8.988281 -22.609375 10.9375 -23.0625 13.15625 -23.0625 C 15.375 -23.0625 17.320312 -22.609375 19 -21.703125 C 20.675781 -20.796875 21.976562 -19.457031 22.90625 -17.6875 C 23.832031 -15.925781 24.296875 -13.800781 24.296875 -11.3125 C 24.296875 -8.820312 23.832031 -6.695312 22.90625 -4.9375 C 21.976562 -3.175781 20.675781 -1.835938 19 -0.921875 C 17.320312 -0.015625 15.375 0.4375 13.15625 0.4375 Z M 13.15625 -4.390625 C 16.675781 -4.390625 18.4375 -6.695312 18.4375 -11.3125 C 18.4375 -13.707031 17.984375 -15.460938 17.078125 -16.578125 C 16.171875 -17.691406 14.863281 -18.25 13.15625 -18.25 C 9.632812 -18.25 7.875 -15.9375 7.875 -11.3125 C 7.875 -6.695312 9.632812 -4.390625 13.15625 -4.390625 Z M 13.15625 -4.390625 "/></g></g></g><g fill="#a6a6a6" fill-opacity="1"><g transform="translate(124.731855, 44.761457)"><g><path d="M 15.578125 0 L 8.796875 0 L 0.4375 -22.640625 L 6.375 -22.640625 L 12 -6.5 L 12.484375 -6.5 L 18.125 -22.640625 L 23.9375 -22.640625 Z M 15.578125 0 "/></g></g></g><g fill="#a6a6a6" fill-opacity="1"><g transform="translate(148.639166, 44.761457)"><g><path d="M 22.375 -10.03125 L 7.8125 -10.03125 C 7.976562 -8.0625 8.539062 -6.628906 9.5 -5.734375 C 10.457031 -4.835938 11.765625 -4.390625 13.421875 -4.390625 C 14.722656 -4.390625 15.773438 -4.628906 16.578125 -5.109375 C 17.390625 -5.597656 18.039062 -6.335938 18.53125 -7.328125 L 18.96875 -7.328125 L 22.734375 -4.90625 C 21.992188 -3.320312 20.878906 -2.035156 19.390625 -1.046875 C 17.898438 -0.0546875 15.910156 0.4375 13.421875 0.4375 C 11.078125 0.4375 9.050781 -0.00390625 7.34375 -0.890625 C 5.644531 -1.785156 4.332031 -3.113281 3.40625 -4.875 C 2.488281 -6.632812 2.03125 -8.78125 2.03125 -11.3125 C 2.03125 -13.882812 2.515625 -16.050781 3.484375 -17.8125 C 4.460938 -19.582031 5.773438 -20.898438 7.421875 -21.765625 C 9.078125 -22.628906 10.941406 -23.0625 13.015625 -23.0625 C 16.210938 -23.0625 18.660156 -22.210938 20.359375 -20.515625 C 22.066406 -18.828125 22.921875 -16.335938 22.921875 -13.046875 C 22.921875 -11.859375 22.878906 -10.9375 22.796875 -10.28125 Z M 17.484375 -13.703125 C 17.429688 -15.429688 17.03125 -16.6875 16.28125 -17.46875 C 15.539062 -18.257812 14.453125 -18.65625 13.015625 -18.65625 C 10.140625 -18.65625 8.445312 -17.003906 7.9375 -13.703125 Z M 17.484375 -13.703125 "/></g></g><g transform="translate(173.244201, 44.761457)"><g><path d="M 3.265625 0 L 3.265625 -22.640625 L 8.78125 -22.640625 L 8.78125 -19.265625 L 9.21875 -19.1875 C 9.757812 -20.445312 10.472656 -21.367188 11.359375 -21.953125 C 12.253906 -22.546875 13.335938 -22.84375 14.609375 -22.84375 C 15.898438 -22.84375 16.878906 -22.625 17.546875 -22.1875 L 16.578125 -17.28125 L 16.15625 -17.203125 C 15.78125 -17.347656 15.421875 -17.453125 15.078125 -17.515625 C 14.742188 -17.585938 14.328125 -17.625 13.828125 -17.625 C 12.242188 -17.625 11.035156 -17.066406 10.203125 -15.953125 C 9.367188 -14.835938 8.953125 -13.050781 8.953125 -10.59375 L 8.953125 0 Z M 3.265625 0 "/></g></g><g transform="translate(190.995123, 44.761457)"><g/></g><g transform="translate(200.90691, 44.761457)"><g><path d="M 15.5 -30 C 17.644531 -30 19.476562 -29.601562 21 -28.8125 C 22.53125 -28.03125 23.6875 -26.929688 24.46875 -25.515625 C 25.25 -24.097656 25.640625 -22.453125 25.640625 -20.578125 C 25.640625 -18.703125 25.25 -17.0625 24.46875 -15.65625 C 23.6875 -14.25 22.53125 -13.148438 21 -12.359375 C 19.476562 -11.578125 17.644531 -11.1875 15.5 -11.1875 L 9.828125 -11.1875 L 9.828125 0 L 3.90625 0 L 3.90625 -30 Z M 14.71875 -15.890625 C 18.007812 -15.890625 19.65625 -17.453125 19.65625 -20.578125 C 19.65625 -23.734375 18.007812 -25.3125 14.71875 -25.3125 L 9.828125 -25.3125 L 9.828125 -15.890625 Z M 14.71875 -15.890625 "/></g></g><g transform="translate(228.323363, 44.761457)"><g><path d="M 3.265625 0 L 3.265625 -31.734375 L 8.953125 -31.734375 L 8.953125 -19.6875 L 9.375 -19.59375 C 10.132812 -20.707031 11.0625 -21.5625 12.15625 -22.15625 C 13.25 -22.757812 14.566406 -23.0625 16.109375 -23.0625 C 21.097656 -23.0625 23.59375 -20.234375 23.59375 -14.578125 L 23.59375 0 L 17.921875 0 L 17.921875 -13.859375 C 17.921875 -15.398438 17.609375 -16.519531 16.984375 -17.21875 C 16.367188 -17.914062 15.414062 -18.265625 14.125 -18.265625 C 12.53125 -18.265625 11.269531 -17.734375 10.34375 -16.671875 C 9.414062 -15.609375 8.953125 -13.957031 8.953125 -11.71875 L 8.953125 0 Z M 3.265625 0 "/></g></g><g transform="translate(254.836879, 44.761457)"><g><path d="M 13.15625 0.4375 C 10.9375 0.4375 8.988281 -0.015625 7.3125 -0.921875 C 5.632812 -1.835938 4.332031 -3.175781 3.40625 -4.9375 C 2.488281 -6.695312 2.03125 -8.820312 2.03125 -11.3125 C 2.03125 -13.800781 2.488281 -15.925781 3.40625 -17.6875 C 4.332031 -19.457031 5.632812 -20.796875 7.3125 -21.703125 C 8.988281 -22.609375 10.9375 -23.0625 13.15625 -23.0625 C 15.375 -23.0625 17.320312 -22.609375 19 -21.703125 C 20.675781 -20.796875 21.976562 -19.457031 22.90625 -17.6875 C 23.832031 -15.925781 24.296875 -13.800781 24.296875 -11.3125 C 24.296875 -8.820312 23.832031 -6.695312 22.90625 -4.9375 C 21.976562 -3.175781 20.675781 -1.835938 19 -0.921875 C 17.320312 -0.015625 15.375 0.4375 13.15625 0.4375 Z M 13.15625 -4.390625 C 16.675781 -4.390625 18.4375 -6.695312 18.4375 -11.3125 C 18.4375 -13.707031 17.984375 -15.460938 17.078125 -16.578125 C 16.171875 -17.691406 14.863281 -18.25 13.15625 -18.25 C 9.632812 -18.25 7.875 -15.9375 7.875 -11.3125 C 7.875 -6.695312 9.632812 -4.390625 13.15625 -4.390625 Z M 13.15625 -4.390625 "/></g></g><g transform="translate(281.145182, 44.761457)"><g><path d="M 15.625 -5.390625 L 17.09375 -1.1875 C 16.476562 -0.6875 15.703125 -0.289062 14.765625 0 C 13.835938 0.289062 12.785156 0.4375 11.609375 0.4375 C 9.160156 0.4375 7.300781 -0.226562 6.03125 -1.5625 C 4.757812 -2.90625 4.125 -4.847656 4.125 -7.390625 L 4.125 -18.140625 L 0.671875 -18.140625 L 0.671875 -22.65625 L 4.125 -22.65625 L 4.125 -27.0625 L 9.8125 -28 L 9.8125 -22.65625 L 16.234375 -22.65625 L 16.234375 -18.140625 L 9.8125 -18.140625 L 9.8125 -7.796875 C 9.8125 -6.671875 10.039062 -5.851562 10.5 -5.34375 C 10.96875 -4.832031 11.648438 -4.578125 12.546875 -4.578125 C 13.554688 -4.578125 14.4375 -4.847656 15.1875 -5.390625 Z M 15.625 -5.390625 "/></g></g></g><g fill="#a6a6a6" fill-opacity="1"><g transform="translate(298.465158, 44.761457)"><g><path d="M 13.15625 0.4375 C 10.9375 0.4375 8.988281 -0.015625 7.3125 -0.921875 C 5.632812 -1.835938 4.332031 -3.175781 3.40625 -4.9375 C 2.488281 -6.695312 2.03125 -8.820312 2.03125 -11.3125 C 2.03125 -13.800781 2.488281 -15.925781 3.40625 -17.6875 C 4.332031 -19.457031 5.632812 -20.796875 7.3125 -21.703125 C 8.988281 -22.609375 10.9375 -23.0625 13.15625 -23.0625 C 15.375 -23.0625 17.320312 -22.609375 19 -21.703125 C 20.675781 -20.796875 21.976562 -19.457031 22.90625 -17.6875 C 23.832031 -15.925781 24.296875 -13.800781 24.296875 -11.3125 C 24.296875 -8.820312 23.832031 -6.695312 22.90625 -4.9375 C 21.976562 -3.175781 20.675781 -1.835938 19 -0.921875 C 17.320312 -0.015625 15.375 0.4375 13.15625 0.4375 Z M 13.15625 -4.390625 C 16.675781 -4.390625 18.4375 -6.695312 18.4375 -11.3125 C 18.4375 -13.707031 17.984375 -15.460938 17.078125 -16.578125 C 16.171875 -17.691406 14.863281 -18.25 13.15625 -18.25 C 9.632812 -18.25 7.875 -15.9375 7.875 -11.3125 C 7.875 -6.695312 9.632812 -4.390625 13.15625 -4.390625 Z M 13.15625 -4.390625 "/></g></g></g></g></g></svg>